<svg width="26" height="20" viewBox="0 0 26 20" fill="none" xmlns="http://www.w3.org/2000/svg">
<g filter="url(#filter0_d_0_112)">
<path d="M13.9403 0C10.3582 0 10.3582 12 13.9403 12C17.5224 12 22 9.75 22 6C22 2.25 17.5224 0 13.9403 0ZM14.0299 10.3333C13.6716 10 13.0448 8.5 13.0448 6C13.0448 3.5 13.6716 2 14.0299 1.66667C16.6269 1.75 20.209 3.25 20.209 6C20.209 8.75 16.5373 10.25 14.0299 10.3333ZM9.46269 4.75C9.46269 5.16667 9.37313 5.58333 9.37313 6V6.5L4.44776 7.66667L4 6.08333L9.46269 4.75ZM4.08955 1.83333L10.7164 0.25C10.5373 0.5 10.3582 0.833333 10.2687 1.25C10.1791 1.5 10.0896 1.83333 10 2.16667L4.53731 3.41667L4.08955 1.83333ZM9.64179 8.91667C9.73134 9.5 9.91045 10.0833 10.0896 10.5L4.44776 11.8333L4 10.25L9.64179 8.91667Z" fill="white"/>
</g>
<defs>
<filter id="filter0_d_0_112" x="0" y="0" width="26" height="20" filterUnits="userSpaceOnUse" color-interpolation-filters="sRGB">
<feFlood flood-opacity="0" result="BackgroundImageFix"/>
<feColorMatrix in="SourceAlpha" type="matrix" values="0 0 0 0 0 0 0 0 0 0 0 0 0 0 0 0 0 0 127 0" result="hardAlpha"/>
<feOffset dy="4"/>
<feGaussianBlur stdDeviation="2"/>
<feComposite in2="hardAlpha" operator="out"/>
<feColorMatrix type="matrix" values="0 0 0 0 0 0 0 0 0 0 0 0 0 0 0 0 0 0 0.25 0"/>
<feBlend mode="normal" in2="BackgroundImageFix" result="effect1_dropShadow_0_112"/>
<feBlend mode="normal" in="SourceGraphic" in2="effect1_dropShadow_0_112" result="shape"/>
</filter>
</defs>
</svg>
