<svg width="19" height="16" viewBox="0 0 19 16" fill="none" xmlns="http://www.w3.org/2000/svg">
<path d="M17.7934 6.2222C17.1406 6.2222 16.6074 6.82028 16.6047 7.55553L16.5999 8.88886H15.8106L15.8167 7.21874C15.8184 6.75086 15.6517 6.29253 15.3589 5.96178L14.4777 4.96524C14.1853 4.63408 13.779 4.44441 13.3636 4.44441H11.0914L11.0979 2.66666H12.2818C12.9346 2.66666 13.4678 2.06858 13.4705 1.33333C13.4732 0.598082 12.9443 0 12.2915 0L7.55614 0C6.90332 0 6.37011 0.598082 6.36742 1.33333C6.36474 2.06858 6.89358 2.66666 7.5464 2.66666H8.73025L8.72375 4.44445H7.24088C6.82546 4.44445 6.41782 4.63412 6.12294 4.96528L5.00232 6.22224H4.37647C3.72365 6.22224 3.19044 6.82032 3.18775 7.55557L3.18288 8.8889H2.3937L2.39857 7.55557C2.40126 6.82032 1.87241 6.22224 1.2196 6.22224C0.566778 6.22224 0.0335652 6.82032 0.0308802 7.55557L0.011404 12.8889C0.00871901 13.6241 0.537564 14.2222 1.19038 14.2222C1.8432 14.2222 2.37641 13.6241 2.3791 12.8889L2.38397 11.5556H3.17318L3.16831 12.8889C3.16563 13.6241 3.69447 14.2222 4.34729 14.2222H4.97314L6.08458 15.4792C6.37704 15.8103 6.7833 16 7.19871 16H12.5322C12.9476 16 13.3552 15.8103 13.6501 15.4792L15.331 13.5938C15.6263 13.263 15.7963 12.8047 15.798 12.3368L15.8009 11.5556H16.5901L16.5852 12.8889C16.5826 13.6241 17.1114 14.2222 17.7642 14.2222C18.417 14.2222 18.9503 13.6241 18.9529 12.8889L18.9724 7.55557C18.9751 6.82032 18.4463 6.2222 17.7934 6.2222Z" fill="white"/>
</svg>
