<svg width="13" height="12" viewBox="0 0 13 12" fill="none" xmlns="http://www.w3.org/2000/svg">
<g clip-path="url(#clip0_0_231)">
<path d="M6.5 0L13 2.57143V3.42857H12.1333C12.1333 3.54464 12.0871 3.64509 11.9945 3.72991C11.902 3.81473 11.7925 3.85714 11.6661 3.85714H1.33385C1.20747 3.85714 1.098 3.81473 1.00547 3.72991C0.912934 3.64509 0.866667 3.54464 0.866667 3.42857H0V2.57143L6.5 0ZM1.73333 4.28571H3.46667V9.42857H4.33333V4.28571H6.06667V9.42857H6.93333V4.28571H8.66667V9.42857H9.53333V4.28571H11.2667V9.42857H11.6661C11.7925 9.42857 11.902 9.47098 11.9945 9.5558C12.0871 9.64062 12.1333 9.74107 12.1333 9.85714V10.2857H0.866667V9.85714C0.866667 9.74107 0.912934 9.64062 1.00547 9.5558C1.098 9.47098 1.20747 9.42857 1.33385 9.42857H1.73333V4.28571ZM12.5328 10.7143C12.6592 10.7143 12.7687 10.7567 12.8612 10.8415C12.9537 10.9263 13 11.0268 13 11.1429V12H0V11.1429C0 11.0268 0.0462674 10.9263 0.138802 10.8415C0.231337 10.7567 0.340799 10.7143 0.467187 10.7143H12.5328Z" fill="#F5F5F5"/>
</g>
<defs>
<clipPath id="clip0_0_231">
<rect width="13" height="12" fill="white"/>
</clipPath>
</defs>
</svg>
