<svg width="266" height="266" viewBox="0 0 266 266" fill="none" xmlns="http://www.w3.org/2000/svg">
<path d="M134 14C102.174 14 71.6516 26.6428 49.1472 49.1472C26.6428 71.6515 14 102.174 14 134C14 165.826 26.6428 196.348 49.1472 218.853C71.6515 241.357 102.174 254 134 254L134 215.663C112.342 215.663 91.5704 207.059 76.2556 191.744C60.9409 176.43 52.3372 155.658 52.3372 134C52.3372 112.342 60.9409 91.5704 76.2557 76.2557C91.5704 60.9409 112.342 52.3372 134 52.3372V14Z" fill="#D9D9D9" fill-opacity="0.04"/>
<mask id="path-2-inside-1_0_92" fill="white">
<path d="M134 14C102.174 14 71.6516 26.6428 49.1472 49.1472C26.6428 71.6515 14 102.174 14 134C14 165.826 26.6428 196.348 49.1472 218.853C71.6515 241.357 102.174 254 134 254L134 239.59C105.996 239.589 79.1388 228.465 59.3369 208.663C39.5351 188.861 28.4105 162.004 28.4105 134C28.4105 105.996 39.5351 79.1388 59.337 59.3369C79.1388 39.5351 105.996 28.4105 134 28.4105L134 14Z"/>
</mask>
<path d="M134 14C102.174 14 71.6516 26.6428 49.1472 49.1472C26.6428 71.6515 14 102.174 14 134C14 165.826 26.6428 196.348 49.1472 218.853C71.6515 241.357 102.174 254 134 254L134 239.59C105.996 239.589 79.1388 228.465 59.3369 208.663C39.5351 188.861 28.4105 162.004 28.4105 134C28.4105 105.996 39.5351 79.1388 59.337 59.3369C79.1388 39.5351 105.996 28.4105 134 28.4105L134 14Z" fill="url(#paint0_linear_0_92)" stroke="white" stroke-opacity="0.06" stroke-width="2" mask="url(#path-2-inside-1_0_92)"/>
<mask id="path-3-inside-2_0_92" fill="white">
<path d="M1.11442 150.181C5.28283 182.179 20.9417 211.569 45.1733 232.877C69.405 254.185 100.557 265.957 132.825 266L132.83 262.172C101.491 262.131 71.2352 250.698 47.7009 230.003C24.1666 209.308 8.95843 180.763 4.90998 149.687L1.11442 150.181Z"/>
</mask>
<path d="M1.11442 150.181C5.28283 182.179 20.9417 211.569 45.1733 232.877C69.405 254.185 100.557 265.957 132.825 266L132.83 262.172C101.491 262.131 71.2352 250.698 47.7009 230.003C24.1666 209.308 8.95843 180.763 4.90998 149.687L1.11442 150.181Z" fill="url(#paint1_linear_0_92)" stroke="white" stroke-opacity="0.06" stroke-width="2" mask="url(#path-3-inside-2_0_92)"/>
<path d="M47.467 234.848C71.3617 254.915 101.551 265.942 132.754 266L132.761 262.172C102.456 262.116 73.1356 251.407 49.9286 231.917L47.467 234.848Z" fill="#1B66F8"/>
<path d="M14.025 131.549C13.6989 147.513 16.562 163.381 22.4465 178.225C28.3311 193.068 37.1187 206.588 48.2946 217.992C59.4706 229.396 72.81 238.454 87.5315 244.638C102.253 250.821 118.06 254.004 134.027 254L134.024 239.589C119.974 239.593 106.065 236.792 93.1117 231.351C80.1582 225.911 68.4206 217.94 58.5868 207.905C48.7529 197.871 41.0206 185.975 35.8427 172.914C30.6648 159.853 28.1456 145.89 28.4325 131.843L14.025 131.549Z" fill="#F81B43"/>
<path d="M131.888 233H125.434V231.74L128.85 228.254C129.681 227.423 130.096 226.705 130.096 226.098C130.096 225.631 129.956 225.263 129.676 224.992C129.396 224.721 129.032 224.586 128.584 224.586C127.763 224.586 127.156 224.992 126.764 225.804L125.406 225.006C125.705 224.362 126.134 223.872 126.694 223.536C127.254 223.191 127.879 223.018 128.57 223.018C129.438 223.018 130.175 223.289 130.782 223.83C131.398 224.381 131.706 225.118 131.706 226.042C131.706 227.031 131.151 228.095 130.04 229.234L127.828 231.446H131.888V233ZM139.511 231.796C138.839 232.72 137.897 233.182 136.683 233.182C135.479 233.182 134.532 232.72 133.841 231.796C133.169 230.872 132.833 229.64 132.833 228.1C132.833 226.56 133.169 225.328 133.841 224.404C134.532 223.48 135.479 223.018 136.683 223.018C137.897 223.018 138.839 223.48 139.511 224.404C140.193 225.319 140.533 226.551 140.533 228.1C140.533 229.649 140.193 230.881 139.511 231.796ZM136.683 231.614C137.411 231.614 137.967 231.311 138.349 230.704C138.732 230.097 138.923 229.229 138.923 228.1C138.923 226.971 138.732 226.103 138.349 225.496C137.967 224.889 137.411 224.586 136.683 224.586C135.965 224.586 135.409 224.889 135.017 225.496C134.635 226.103 134.443 226.971 134.443 228.1C134.443 229.229 134.635 230.097 135.017 230.704C135.409 231.311 135.965 231.614 136.683 231.614Z" fill="white"/>
<path d="M94.762 214.738H95.882V216.236H94.762V218H93.138V216.236H88.322V214.738L91.696 208.2H93.446L90.072 214.738H93.138V212.19H94.762V214.738ZM103.359 216.796C102.687 217.72 101.744 218.182 100.531 218.182C99.3271 218.182 98.3798 217.72 97.6891 216.796C97.0171 215.872 96.6811 214.64 96.6811 213.1C96.6811 211.56 97.0171 210.328 97.6891 209.404C98.3798 208.48 99.3271 208.018 100.531 208.018C101.744 208.018 102.687 208.48 103.359 209.404C104.04 210.319 104.381 211.551 104.381 213.1C104.381 214.649 104.04 215.881 103.359 216.796ZM100.531 216.614C101.259 216.614 101.814 216.311 102.197 215.704C102.58 215.097 102.771 214.229 102.771 213.1C102.771 211.971 102.58 211.103 102.197 210.496C101.814 209.889 101.259 209.586 100.531 209.586C99.8124 209.586 99.2571 209.889 98.8651 210.496C98.4824 211.103 98.2911 211.971 98.2911 213.1C98.2911 214.229 98.4824 215.097 98.8651 215.704C99.2571 216.311 99.8124 216.614 100.531 216.614Z" fill="white" fill-opacity="0.58"/>
<path d="M62.64 186.49H62.822C63.8487 186.49 64.6793 186.803 65.314 187.428C65.958 188.044 66.28 188.847 66.28 189.836C66.28 190.816 65.958 191.623 65.314 192.258C64.67 192.874 63.8393 193.182 62.822 193.182C61.7953 193.182 60.96 192.874 60.316 192.258C59.672 191.623 59.35 190.816 59.35 189.836C59.35 189.089 59.546 188.431 59.938 187.862L63.046 183.2H64.88L62.64 186.49ZM62.822 191.656C63.3633 191.656 63.8067 191.493 64.152 191.166C64.4973 190.83 64.67 190.387 64.67 189.836C64.67 189.285 64.4973 188.847 64.152 188.52C63.8067 188.184 63.3633 188.016 62.822 188.016C62.262 188.016 61.8093 188.184 61.464 188.52C61.128 188.847 60.96 189.285 60.96 189.836C60.96 190.387 61.128 190.83 61.464 191.166C61.8093 191.493 62.262 191.656 62.822 191.656ZM73.8669 191.796C73.1949 192.72 72.2522 193.182 71.0389 193.182C69.8349 193.182 68.8876 192.72 68.1969 191.796C67.5249 190.872 67.1889 189.64 67.1889 188.1C67.1889 186.56 67.5249 185.328 68.1969 184.404C68.8876 183.48 69.8349 183.018 71.0389 183.018C72.2522 183.018 73.1949 183.48 73.8669 184.404C74.5482 185.319 74.8889 186.551 74.8889 188.1C74.8889 189.649 74.5482 190.881 73.8669 191.796ZM71.0389 191.614C71.7669 191.614 72.3222 191.311 72.7049 190.704C73.0876 190.097 73.2789 189.229 73.2789 188.1C73.2789 186.971 73.0876 186.103 72.7049 185.496C72.3222 184.889 71.7669 184.586 71.0389 184.586C70.3202 184.586 69.7649 184.889 69.3729 185.496C68.9902 186.103 68.7989 186.971 68.7989 188.1C68.7989 189.229 68.9902 190.097 69.3729 190.704C69.7649 191.311 70.3202 191.614 71.0389 191.614Z" fill="white"/>
<path d="M50.922 159.904C51.8833 160.436 52.364 161.229 52.364 162.284C52.364 163.171 52.0513 163.875 51.426 164.398C50.81 164.921 49.9793 165.182 48.934 165.182C47.8887 165.182 47.0533 164.925 46.428 164.412C45.8027 163.899 45.49 163.189 45.49 162.284C45.49 161.78 45.616 161.323 45.868 160.912C46.12 160.492 46.4747 160.156 46.932 159.904C46.1947 159.419 45.826 158.728 45.826 157.832C45.826 156.936 46.1247 156.245 46.722 155.76C47.3287 155.265 48.066 155.018 48.934 155.018C49.7927 155.018 50.5253 155.265 51.132 155.76C51.7387 156.255 52.042 156.945 52.042 157.832C52.042 158.719 51.6687 159.409 50.922 159.904ZM48.934 156.544C48.486 156.544 48.122 156.665 47.842 156.908C47.5713 157.141 47.436 157.473 47.436 157.902C47.436 158.313 47.576 158.644 47.856 158.896C48.136 159.139 48.4953 159.26 48.934 159.26C49.3633 159.26 49.718 159.139 49.998 158.896C50.2873 158.644 50.432 158.313 50.432 157.902C50.432 157.473 50.292 157.141 50.012 156.908C49.732 156.665 49.3727 156.544 48.934 156.544ZM48.934 163.656C49.4847 163.656 49.9233 163.521 50.25 163.25C50.586 162.979 50.754 162.606 50.754 162.13C50.754 161.654 50.586 161.281 50.25 161.01C49.9233 160.739 49.4847 160.604 48.934 160.604C48.374 160.604 47.926 160.739 47.59 161.01C47.2633 161.281 47.1 161.654 47.1 162.13C47.1 162.606 47.2633 162.979 47.59 163.25C47.926 163.521 48.374 163.656 48.934 163.656ZM60.0857 163.796C59.4137 164.72 58.471 165.182 57.2577 165.182C56.0537 165.182 55.1063 164.72 54.4157 163.796C53.7437 162.872 53.4077 161.64 53.4077 160.1C53.4077 158.56 53.7437 157.328 54.4157 156.404C55.1063 155.48 56.0537 155.018 57.2577 155.018C58.471 155.018 59.4137 155.48 60.0857 156.404C60.767 157.319 61.1077 158.551 61.1077 160.1C61.1077 161.649 60.767 162.881 60.0857 163.796ZM57.2577 163.614C57.9857 163.614 58.541 163.311 58.9237 162.704C59.3063 162.097 59.4977 161.229 59.4977 160.1C59.4977 158.971 59.3063 158.103 58.9237 157.496C58.541 156.889 57.9857 156.586 57.2577 156.586C56.539 156.586 55.9837 156.889 55.5917 157.496C55.209 158.103 55.0177 158.971 55.0177 160.1C55.0177 161.229 55.209 162.097 55.5917 162.704C55.9837 163.311 56.539 163.614 57.2577 163.614Z" fill="white" fill-opacity="0.58"/>
<path d="M33.182 128.11L35.758 127.2H37.158V137H35.548V128.922L33.574 129.482L33.182 128.11ZM45.447 135.796C44.775 136.72 43.8323 137.182 42.619 137.182C41.415 137.182 40.4677 136.72 39.777 135.796C39.105 134.872 38.769 133.64 38.769 132.1C38.769 130.56 39.105 129.328 39.777 128.404C40.4677 127.48 41.415 127.018 42.619 127.018C43.8323 127.018 44.775 127.48 45.447 128.404C46.1283 129.319 46.469 130.551 46.469 132.1C46.469 133.649 46.1283 134.881 45.447 135.796ZM42.619 135.614C43.347 135.614 43.9023 135.311 44.285 134.704C44.6677 134.097 44.859 133.229 44.859 132.1C44.859 130.971 44.6677 130.103 44.285 129.496C43.9023 128.889 43.347 128.586 42.619 128.586C41.9003 128.586 41.345 128.889 40.953 129.496C40.5703 130.103 40.379 130.971 40.379 132.1C40.379 133.229 40.5703 134.097 40.953 134.704C41.345 135.311 41.9003 135.614 42.619 135.614ZM54.2653 135.796C53.5933 136.72 52.6507 137.182 51.4373 137.182C50.2333 137.182 49.286 136.72 48.5953 135.796C47.9233 134.872 47.5873 133.64 47.5873 132.1C47.5873 130.56 47.9233 129.328 48.5953 128.404C49.286 127.48 50.2333 127.018 51.4373 127.018C52.6507 127.018 53.5933 127.48 54.2653 128.404C54.9467 129.319 55.2873 130.551 55.2873 132.1C55.2873 133.649 54.9467 134.881 54.2653 135.796ZM51.4373 135.614C52.1653 135.614 52.7207 135.311 53.1033 134.704C53.486 134.097 53.6773 133.229 53.6773 132.1C53.6773 130.971 53.486 130.103 53.1033 129.496C52.7207 128.889 52.1653 128.586 51.4373 128.586C50.7187 128.586 50.1633 128.889 49.7713 129.496C49.3887 130.103 49.1973 130.971 49.1973 132.1C49.1973 133.229 49.3887 134.097 49.7713 134.704C50.1633 135.311 50.7187 135.614 51.4373 135.614Z" fill="white"/>
<path d="M113.6 145.56C110.107 145.56 107.36 144.24 105.36 141.6C103.387 138.907 102.4 135.373 102.4 131C102.4 126.627 103.387 123.107 105.36 120.44C107.36 117.773 110.107 116.44 113.6 116.44C117.147 116.44 119.893 117.773 121.84 120.44C123.813 123.107 124.8 126.627 124.8 131C124.8 135.373 123.813 138.907 121.84 141.6C119.893 144.24 117.147 145.56 113.6 145.56ZM119.32 131C119.32 128.013 118.827 125.733 117.84 124.16C116.88 122.587 115.467 121.8 113.6 121.8C111.733 121.8 110.32 122.587 109.36 124.16C108.4 125.733 107.92 128.013 107.92 131C107.92 133.987 108.4 136.267 109.36 137.84C110.32 139.387 111.733 140.16 113.6 140.16C115.467 140.16 116.88 139.373 117.84 137.8C118.827 136.227 119.32 133.96 119.32 131ZM125.934 122.28V117H144.014V121.68L134.534 145H128.694L137.894 122.28H125.934ZM160.981 130.44C163.568 131.987 164.861 134.24 164.861 137.2C164.861 139.787 163.954 141.827 162.141 143.32C160.354 144.813 157.914 145.56 154.821 145.56C151.701 145.56 149.248 144.813 147.461 143.32C145.674 141.827 144.781 139.787 144.781 137.2C144.781 134.267 146.061 132.013 148.621 130.44C146.674 129.053 145.701 127.12 145.701 124.64C145.701 122.053 146.568 120.04 148.301 118.6C150.061 117.16 152.234 116.44 154.821 116.44C157.434 116.44 159.594 117.16 161.301 118.6C163.034 120.04 163.901 122.053 163.901 124.64C163.901 127.12 162.928 129.053 160.981 130.44ZM158.421 124.92C158.421 123.907 158.088 123.107 157.421 122.52C156.754 121.933 155.888 121.64 154.821 121.64C153.754 121.64 152.888 121.933 152.221 122.52C151.554 123.107 151.221 123.907 151.221 124.92C151.221 125.96 151.554 126.773 152.221 127.36C152.888 127.947 153.754 128.24 154.821 128.24C155.888 128.24 156.754 127.947 157.421 127.36C158.088 126.773 158.421 125.96 158.421 124.92ZM158.141 139.32C158.968 138.627 159.381 137.68 159.381 136.48C159.381 135.28 158.968 134.347 158.141 133.68C157.314 132.987 156.208 132.64 154.821 132.64C153.434 132.64 152.328 132.987 151.501 133.68C150.674 134.347 150.261 135.28 150.261 136.48C150.261 137.68 150.674 138.627 151.501 139.32C152.328 140.013 153.434 140.36 154.821 140.36C156.208 140.36 157.314 140.013 158.141 139.32Z" fill="white"/>
<path d="M131.802 106.96L135.568 112H133.342L129.842 107.408V112H127.91V102.2H129.842V106.526L133.202 102.2H135.428L131.802 106.96ZM144.125 102.2H146.113V112H144.195V105.644L141.437 110.194H141.213L138.455 105.658V112H136.523V102.2H138.511L141.325 106.834L144.125 102.2ZM153.889 100.8L148.289 113.4H147.491L153.091 100.8H153.889ZM160.839 106.092V102.2H162.757V112H160.839V107.94H157.199V112H155.267V102.2H157.199V106.092H160.839Z" fill="white" fill-opacity="0.75"/>
<path d="M45.182 100.11L47.758 99.2H49.158V109H47.548V100.922L45.574 101.482L45.182 100.11ZM57.097 109H50.643V107.74L54.059 104.254C54.8897 103.423 55.305 102.705 55.305 102.098C55.305 101.631 55.165 101.263 54.885 100.992C54.605 100.721 54.241 100.586 53.793 100.586C52.9717 100.586 52.365 100.992 51.973 101.804L50.615 101.006C50.9137 100.362 51.343 99.872 51.903 99.536C52.463 99.1907 53.0883 99.018 53.779 99.018C54.647 99.018 55.3843 99.2887 55.991 99.83C56.607 100.381 56.915 101.118 56.915 102.042C56.915 103.031 56.3597 104.095 55.249 105.234L53.037 107.446H57.097V109ZM64.7204 107.796C64.0484 108.72 63.1058 109.182 61.8924 109.182C60.6884 109.182 59.7411 108.72 59.0504 107.796C58.3784 106.872 58.0424 105.64 58.0424 104.1C58.0424 102.56 58.3784 101.328 59.0504 100.404C59.7411 99.48 60.6884 99.018 61.8924 99.018C63.1058 99.018 64.0484 99.48 64.7204 100.404C65.4018 101.319 65.7424 102.551 65.7424 104.1C65.7424 105.649 65.4018 106.881 64.7204 107.796ZM61.8924 107.614C62.6204 107.614 63.1758 107.311 63.5584 106.704C63.9411 106.097 64.1324 105.229 64.1324 104.1C64.1324 102.971 63.9411 102.103 63.5584 101.496C63.1758 100.889 62.6204 100.586 61.8924 100.586C61.1738 100.586 60.6184 100.889 60.2264 101.496C59.8438 102.103 59.6524 102.971 59.6524 104.1C59.6524 105.229 59.8438 106.097 60.2264 106.704C60.6184 107.311 61.1738 107.614 61.8924 107.614Z" fill="white" fill-opacity="0.58"/>
<path d="M59.182 72.11L61.758 71.2H63.158V81H61.548V72.922L59.574 73.482L59.182 72.11ZM70.971 77.738H72.091V79.236H70.971V81H69.347V79.236H64.531V77.738L67.905 71.2H69.655L66.281 77.738H69.347V75.19H70.971V77.738ZM79.5681 79.796C78.8961 80.72 77.9534 81.182 76.7401 81.182C75.5361 81.182 74.5887 80.72 73.8981 79.796C73.2261 78.872 72.8901 77.64 72.8901 76.1C72.8901 74.56 73.2261 73.328 73.8981 72.404C74.5887 71.48 75.5361 71.018 76.7401 71.018C77.9534 71.018 78.8961 71.48 79.5681 72.404C80.2494 73.3187 80.5901 74.5507 80.5901 76.1C80.5901 77.6493 80.2494 78.8813 79.5681 79.796ZM76.7401 79.614C77.4681 79.614 78.0234 79.3107 78.4061 78.704C78.7887 78.0973 78.9801 77.2293 78.9801 76.1C78.9801 74.9707 78.7887 74.1027 78.4061 73.496C78.0234 72.8893 77.4681 72.586 76.7401 72.586C76.0214 72.586 75.4661 72.8893 75.0741 73.496C74.6914 74.1027 74.5001 74.9707 74.5001 76.1C74.5001 77.2293 74.6914 78.0973 75.0741 78.704C75.4661 79.3107 76.0214 79.614 76.7401 79.614Z" fill="white"/>
<path d="M86.182 49.11L88.758 48.2H90.158V58H88.548V49.922L86.574 50.482L86.182 49.11ZM97.131 52.904C98.0923 53.436 98.573 54.2293 98.573 55.284C98.573 56.1707 98.2603 56.8753 97.635 57.398C97.019 57.9207 96.1883 58.182 95.143 58.182C94.0977 58.182 93.2623 57.9253 92.637 57.412C92.0117 56.8987 91.699 56.1893 91.699 55.284C91.699 54.78 91.825 54.3227 92.077 53.912C92.329 53.492 92.6837 53.156 93.141 52.904C92.4037 52.4187 92.035 51.728 92.035 50.832C92.035 49.936 92.3337 49.2453 92.931 48.76C93.5377 48.2653 94.275 48.018 95.143 48.018C96.0017 48.018 96.7343 48.2653 97.341 48.76C97.9477 49.2547 98.251 49.9453 98.251 50.832C98.251 51.7187 97.8777 52.4093 97.131 52.904ZM95.143 49.544C94.695 49.544 94.331 49.6653 94.051 49.908C93.7803 50.1413 93.645 50.4727 93.645 50.902C93.645 51.3127 93.785 51.644 94.065 51.896C94.345 52.1387 94.7043 52.26 95.143 52.26C95.5723 52.26 95.927 52.1387 96.207 51.896C96.4963 51.644 96.641 51.3127 96.641 50.902C96.641 50.4727 96.501 50.1413 96.221 49.908C95.941 49.6653 95.5817 49.544 95.143 49.544ZM95.143 56.656C95.6937 56.656 96.1323 56.5207 96.459 56.25C96.795 55.9793 96.963 55.606 96.963 55.13C96.963 54.654 96.795 54.2807 96.459 54.01C96.1323 53.7393 95.6937 53.604 95.143 53.604C94.583 53.604 94.135 53.7393 93.799 54.01C93.4723 54.2807 93.309 54.654 93.309 55.13C93.309 55.606 93.4723 55.9793 93.799 56.25C94.135 56.5207 94.583 56.656 95.143 56.656ZM106.295 56.796C105.623 57.72 104.68 58.182 103.467 58.182C102.263 58.182 101.315 57.72 100.625 56.796C99.9526 55.872 99.6166 54.64 99.6166 53.1C99.6166 51.56 99.9526 50.328 100.625 49.404C101.315 48.48 102.263 48.018 103.467 48.018C104.68 48.018 105.623 48.48 106.295 49.404C106.976 50.3187 107.317 51.5507 107.317 53.1C107.317 54.6493 106.976 55.8813 106.295 56.796ZM103.467 56.614C104.195 56.614 104.75 56.3107 105.133 55.704C105.515 55.0973 105.707 54.2293 105.707 53.1C105.707 51.9707 105.515 51.1027 105.133 50.496C104.75 49.8893 104.195 49.586 103.467 49.586C102.748 49.586 102.193 49.8893 101.801 50.496C101.418 51.1027 101.227 51.9707 101.227 53.1C101.227 54.2293 101.418 55.0973 101.801 55.704C102.193 56.3107 102.748 56.614 103.467 56.614Z" fill="white" fill-opacity="0.58"/>
<path d="M129.888 46H123.434V44.74L126.85 41.254C127.681 40.4233 128.096 39.7047 128.096 39.098C128.096 38.6313 127.956 38.2627 127.676 37.992C127.396 37.7213 127.032 37.586 126.584 37.586C125.763 37.586 125.156 37.992 124.764 38.804L123.406 38.006C123.705 37.362 124.134 36.872 124.694 36.536C125.254 36.1907 125.879 36.018 126.57 36.018C127.438 36.018 128.175 36.2887 128.782 36.83C129.398 37.3807 129.706 38.118 129.706 39.042C129.706 40.0313 129.151 41.0953 128.04 42.234L125.828 44.446H129.888V46ZM137.511 44.796C136.839 45.72 135.897 46.182 134.683 46.182C133.479 46.182 132.532 45.72 131.841 44.796C131.169 43.872 130.833 42.64 130.833 41.1C130.833 39.56 131.169 38.328 131.841 37.404C132.532 36.48 133.479 36.018 134.683 36.018C135.897 36.018 136.839 36.48 137.511 37.404C138.193 38.3187 138.533 39.5507 138.533 41.1C138.533 42.6493 138.193 43.8813 137.511 44.796ZM134.683 44.614C135.411 44.614 135.967 44.3107 136.349 43.704C136.732 43.0973 136.923 42.2293 136.923 41.1C136.923 39.9707 136.732 39.1027 136.349 38.496C135.967 37.8893 135.411 37.586 134.683 37.586C133.965 37.586 133.409 37.8893 133.017 38.496C132.635 39.1027 132.443 39.9707 132.443 41.1C132.443 42.2293 132.635 43.0973 133.017 43.704C133.409 44.3107 133.965 44.614 134.683 44.614ZM146.33 44.796C145.658 45.72 144.715 46.182 143.502 46.182C142.298 46.182 141.35 45.72 140.66 44.796C139.988 43.872 139.652 42.64 139.652 41.1C139.652 39.56 139.988 38.328 140.66 37.404C141.35 36.48 142.298 36.018 143.502 36.018C144.715 36.018 145.658 36.48 146.33 37.404C147.011 38.3187 147.352 39.5507 147.352 41.1C147.352 42.6493 147.011 43.8813 146.33 44.796ZM143.502 44.614C144.23 44.614 144.785 44.3107 145.168 43.704C145.55 43.0973 145.742 42.2293 145.742 41.1C145.742 39.9707 145.55 39.1027 145.168 38.496C144.785 37.8893 144.23 37.586 143.502 37.586C142.783 37.586 142.228 37.8893 141.836 38.496C141.453 39.1027 141.262 39.9707 141.262 41.1C141.262 42.2293 141.453 43.0973 141.836 43.704C142.228 44.3107 142.783 44.614 143.502 44.614Z" fill="white"/>
<defs>
<linearGradient id="paint0_linear_0_92" x1="14" y1="14" x2="288.505" y2="63.7987" gradientUnits="userSpaceOnUse">
<stop stop-color="#D9D9D9" stop-opacity="0.05"/>
<stop offset="1" stop-color="#D9D9D9" stop-opacity="0"/>
</linearGradient>
<linearGradient id="paint1_linear_0_92" x1="0" y1="0" x2="304.243" y2="55.1936" gradientUnits="userSpaceOnUse">
<stop stop-color="#D9D9D9" stop-opacity="0.05"/>
<stop offset="1" stop-color="#D9D9D9" stop-opacity="0"/>
</linearGradient>
</defs>
</svg>
