<svg width="16" height="14" viewBox="0 0 16 14" fill="none" xmlns="http://www.w3.org/2000/svg">
<path d="M5.33331 7.54116C6.91269 7.54116 8.10415 6.3497 8.10415 4.77032C8.10415 3.19095 6.91269 1.99949 5.33331 1.99949C3.75394 1.99949 2.56248 3.19095 2.56248 4.77032C2.56248 6.3497 3.75394 7.54116 5.33331 7.54116ZM6.12498 8.29166H4.54165C2.35902 8.29166 0.583313 10.0674 0.583313 12.25V13.0417H10.0833V12.25C10.0833 10.0674 8.3076 8.29166 6.12498 8.29166ZM13.5381 0.0868225L12.4187 1.20624C13.4645 2.25361 14.0416 3.64536 14.0416 5.12499C14.0416 6.60461 13.4645 7.99636 12.4187 9.04374L13.5381 10.1632C14.884 8.81653 15.625 7.02736 15.625 5.12499C15.625 3.22261 14.884 1.43345 13.5381 0.0868225V0.0868225Z" fill="white"/>
<path d="M11.2986 2.32565L10.1791 3.44665C10.628 3.89394 10.875 4.49007 10.875 5.12499C10.875 5.7599 10.628 6.35603 10.1791 6.80332L11.2986 7.92432C12.0459 7.17699 12.4583 6.18344 12.4583 5.12499C12.4583 4.06653 12.0459 3.07299 11.2986 2.32565Z" fill="white"/>
</svg>
